<svg width="27" height="22" viewBox="0 0 27 22" fill="none" xmlns="http://www.w3.org/2000/svg">
<path d="M11.2281 16.709C9.70065 16.709 8.47272 17.8845 8.47272 19.3119C8.47272 20.7673 9.70065 21.9428 11.2281 21.9428C12.7555 21.9428 13.9834 20.7673 13.9834 19.3119C13.9834 17.8565 12.7555 16.709 11.2281 16.709ZM11.2281 20.2635C10.689 20.2635 10.2697 19.8437 10.2697 19.3119C10.2697 18.8081 10.689 18.3883 11.2281 18.3883C11.7672 18.3883 12.1864 18.8081 12.1864 19.3119C12.1864 19.8157 11.7672 20.2635 11.2281 20.2635Z" fill="#9758A6"/>
<path d="M22.2191 16.709C20.6917 16.709 19.4637 17.8845 19.4637 19.3119C19.4637 20.7673 20.6917 21.9428 22.2191 21.9428C23.7465 21.9428 24.9745 20.7673 24.9745 19.3119C24.9445 17.8565 23.7166 16.709 22.2191 16.709ZM22.2191 20.2635C21.68 20.2635 21.2607 19.8437 21.2607 19.3119C21.2607 18.8081 21.68 18.3883 22.2191 18.3883C22.7582 18.3883 23.1775 18.8081 23.1775 19.3119C23.1475 19.8157 22.7282 20.2635 22.2191 20.2635Z" fill="#9758A6"/>
<path d="M25.9928 3.27463C25.8131 3.05073 25.5436 2.93877 25.274 2.93877H7.51401L7.12467 1.76326C6.76528 0.699708 5.747 0 4.54902 0H1.76372C1.25458 0 0.865234 0.363848 0.865234 0.83965C0.865234 1.31545 1.25458 1.6793 1.76372 1.6793H4.54902C4.93836 1.6793 5.29775 1.90321 5.41755 2.26705L8.68204 11.895L8.65209 11.979C8.26275 12.8466 8.3526 13.8262 8.89169 14.6379C9.46073 15.4216 10.3892 15.8974 11.4074 15.8974H23.6867C24.1959 15.8974 24.5852 15.5335 24.5852 15.0577C24.5852 14.5819 24.1959 14.2181 23.6867 14.2181H11.4074C10.9882 14.2181 10.6288 14.0222 10.4191 13.7143C10.2095 13.4064 10.1496 13.0146 10.2993 12.6787H20.8116C22.2491 12.6787 23.507 11.8111 23.9563 10.5236L26.1426 4.03032C26.2025 3.77842 26.1426 3.49854 25.9928 3.27463ZM20.7816 10.9994H10.2394L8.08305 4.61807H24.0461L22.2491 10.0198C22.0095 10.6076 21.4405 10.9994 20.7816 10.9994Z" fill="#9758A6"/>
</svg>
